<!DOCTYPE svg PUBLIC "-//W3C//DTD SVG 20010904//EN" "http://www.w3.org/TR/2001/REC-SVG-20010904/DTD/svg10.dtd">
<svg version="1.0" xmlns="http://www.w3.org/2000/svg" width="308px" height="280px" viewBox="0 0 3080 2800" preserveAspectRatio="xMidYMid meet">
<g id="layer101" fill="#ffffff" stroke="none">
 <path d="M1258 2750 c-271 -57 -478 -169 -673 -365 -263 -263 -385 -559 -385 -930 0 -371 123 -668 385 -930 262 -262 559 -385 930 -385 371 0 669 123 930 385 263 263 385 559 385 930 0 371 -122 667 -385 930 -199 200 -420 317 -694 369 -118 23 -378 21 -493 -4z m484 -155 c477 -99 835 -468 919 -945 17 -96 17 -294 0 -390 -74 -420 -370 -769 -768 -904 -242 -82 -514 -82 -756 0 -398 135 -694 484 -768 904 -17 96 -17 294 0 390 89 509 493 894 1006 960 91 12 274 4 367 -15z"/>
 <path d="M1738 2302 c-60 -14 -108 -29 -108 -33 0 -4 33 -14 74 -23 79 -18 208 -76 284 -128 26 -18 80 -65 120 -106 39 -41 72 -70 72 -66 0 36 -72 240 -95 270 -36 47 -105 90 -166 103 -62 14 -53 14 -181 -17z"/>
 <path d="M1360 2195 c-287 -64 -511 -277 -586 -555 -24 -89 -24 -281 0 -370 70 -261 283 -474 546 -546 90 -25 300 -25 390 0 263 72 476 285 546 546 24 89 24 281 0 370 -69 259 -284 475 -541 545 -85 23 -273 28 -355 10z m431 -206 c157 -47 200 -253 74 -356 -158 -130 -389 18 -335 215 15 56 82 125 136 140 53 14 80 14 125 1z m-483 -133 c46 -32 92 -112 92 -160 0 -118 -95 -215 -211 -216 -55 0 -136 38 -165 77 -78 105 -46 251 66 311 64 34 160 29 218 -12z m629 -451 c32 -16 61 -41 79 -67 25 -36 29 -50 29 -114 0 -64 -3 -77 -30 -115 -45 -64 -104 -91 -186 -87 -52 3 -75 9 -106 31 -101 70 -120 213 -40 304 65 74 163 93 254 48z m-534 -107 c120 -66 141 -225 43 -323 -79 -78 -195 -84 -281 -12 -124 101 -86 296 67 354 45 17 121 9 171 -19z"/>
 <path d="M895 2081 c-109 -33 -140 -49 -182 -93 -46 -47 -72 -113 -73 -178 0 -51 38 -230 50 -230 3 0 13 33 22 73 35 147 160 347 258 415 40 27 50 43 28 41 -7 0 -53 -13 -103 -28z"/>
 <path d="M2320 1334 c0 -133 -150 -406 -269 -490 -38 -27 -51 -44 -33 -44 21 0 202 55 232 70 82 43 139 136 140 230 0 30 -12 101 -26 158 -26 99 -44 130 -44 76z"/>
 <path d="M855 933 c4 -10 19 -59 34 -110 16 -51 41 -109 56 -129 37 -49 106 -91 170 -104 47 -10 67 -8 169 16 64 15 116 31 116 34 0 4 -28 13 -62 20 -148 29 -291 106 -411 221 -40 38 -74 69 -76 69 -2 0 0 -8 4 -17z"/>
 </g>

</svg>