<!DOCTYPE svg PUBLIC "-//W3C//DTD SVG 20010904//EN" "http://www.w3.org/TR/2001/REC-SVG-20010904/DTD/svg10.dtd">
<svg version="1.0" xmlns="http://www.w3.org/2000/svg" width="725px" height="725px" viewBox="0 0 7250 7250" preserveAspectRatio="xMidYMid meet">
<g id="layer101" fill="#f6a619" stroke="none">
 <path d="M6950 6038 l0 -1213 -242 -242 -243 -243 93 -92 92 -93 275 275 275 275 0 1272 0 1273 -125 0 -125 0 0 -1212z"/>
 <path d="M5612 4680 c-299 -81 -487 -382 -428 -683 27 -139 71 -212 213 -358 69 -71 131 -129 137 -129 6 0 49 38 96 85 l84 84 -19 23 c-11 13 -65 70 -121 128 -120 125 -139 163 -139 285 0 101 32 172 106 239 70 63 143 89 239 84 132 -6 138 -10 556 -430 349 -351 373 -377 393 -433 15 -40 22 -82 22 -128 0 -108 -29 -159 -169 -300 l-117 -117 93 -93 93 -92 128 130 c105 107 135 144 164 205 54 111 70 186 64 300 -6 116 -33 205 -88 291 -51 80 -748 779 -830 833 -132 87 -325 118 -477 76z"/>
 <path d="M5729 3603 c-397 -399 -449 -456 -481 -518 -55 -107 -72 -175 -72 -290 0 -190 46 -285 223 -467 68 -71 129 -128 135 -128 6 0 49 38 96 85 l84 84 -112 115 c-141 144 -167 193 -167 311 0 148 -18 124 486 630 l449 450 -88 88 c-48 48 -92 87 -98 87 -5 0 -210 -201 -455 -447z"/>
 <path d="M5905 3310 l-90 -90 540 -540 540 -540 -213 -213 -212 -212 90 -90 90 -90 303 303 302 302 -630 630 -630 630 -90 -90z"/>
 <path d="M5665 2230 l-510 -510 93 -92 92 -93 515 515 515 515 -87 87 c-48 49 -92 88 -98 88 -5 0 -240 -229 -520 -510z"/>
 <path d="M5905 2000 l-90 -90 568 -568 567 -567 0 -238 0 -237 -237 0 -238 0 -240 240 -240 240 -90 -90 -90 -90 275 -275 275 -275 417 0 418 0 0 418 0 417 -603 603 -602 602 -90 -90z"/>
 <path d="M3015 2064 c-150 -33 -275 -119 -362 -247 -75 -110 -98 -191 -97 -337 1 -194 45 -286 231 -480 l116 -121 93 92 93 93 -118 121 c-98 100 -121 130 -139 178 -62 164 11 348 166 424 49 24 69 28 142 28 151 0 140 9 645 -495 l441 -440 89 90 90 91 -460 457 c-489 487 -500 497 -635 536 -82 24 -212 29 -295 10z"/>
 <path d="M4335 2066 c-145 -33 -221 -81 -375 -232 l-115 -113 92 -93 93 -92 118 117 c145 143 180 162 302 162 151 0 140 9 645 -496 l440 -439 90 90 90 90 -449 449 c-475 475 -506 501 -635 542 -85 26 -219 33 -296 15z"/>
 <path d="M2990 865 l-565 -565 -1212 0 -1213 0 0 -125 0 -125 1273 0 1272 0 598 598 c328 328 597 602 597 607 0 13 -162 175 -175 175 -6 0 -264 -254 -575 -565z"/>
 <path d="M4430 994 c-318 -318 -448 -442 -485 -461 -73 -38 -188 -43 -270 -12 -51 19 -79 41 -180 140 l-121 118 -87 -87 c-48 -48 -87 -92 -87 -99 0 -19 227 -230 287 -266 176 -107 394 -114 586 -20 66 33 106 70 525 487 248 247 452 455 452 461 0 13 -162 175 -175 175 -6 0 -206 -196 -445 -436z"/>
 <path d="M5648 893 l-538 -538 -213 213 -212 212 -90 -90 -90 -90 303 -303 302 -302 630 630 630 630 -87 87 c-48 49 -90 88 -93 88 -3 0 -247 -242 -542 -537z"/>
 </g>

</svg>