<!DOCTYPE svg PUBLIC "-//W3C//DTD SVG 20010904//EN" "http://www.w3.org/TR/2001/REC-SVG-20010904/DTD/svg10.dtd">
<svg version="1.0" xmlns="http://www.w3.org/2000/svg" width="272px" height="250px" viewBox="0 0 2720 2500" preserveAspectRatio="xMidYMid meet">
<g id="layer101" fill="#ffffff" stroke="none">
 <path d="M240 1555 l0 -785 273 0 274 0 12 -57 c7 -32 32 -99 56 -149 36 -74 57 -103 114 -157 118 -111 255 -167 408 -167 289 0 523 220 523 491 l0 39 270 0 270 0 0 785 0 785 -1100 0 -1100 0 0 -785z m1721 379 l-304 -305 -159 158 -158 158 -158 -158 -157 -157 -305 305 -305 305 925 0 925 0 -304 -306z m-1014 -378 c1 -1 -135 -139 -302 -306 l-305 -305 0 611 0 611 303 -304 c166 -167 303 -305 304 -307z m1398 -1 l0 -615 -308 307 -307 308 307 307 c170 170 308 308 308 308 0 0 0 -277 0 -615z m-535 -220 l465 -465 -192 0 -192 0 -12 43 c-32 121 -124 207 -221 207 -55 0 -135 -45 -168 -93 l-25 -36 -42 35 c-143 117 -310 118 -388 3 -25 -37 -30 -56 -34 -117 -3 -66 0 -79 29 -139 38 -77 123 -166 196 -205 97 -52 236 -73 327 -47 31 8 36 13 32 32 -17 70 -52 339 -48 361 14 70 116 126 172 95 84 -47 117 -285 60 -434 -66 -175 -300 -275 -514 -220 -203 53 -329 201 -362 426 -27 181 8 301 117 402 121 112 306 146 450 81 l54 -25 34 36 c33 34 33 37 16 50 -73 56 -240 79 -368 51 -241 -54 -416 -249 -416 -463 l0 -43 -187 0 -188 0 465 465 c256 256 467 465 470 465 3 0 214 -209 470 -465z m-503 -345 c85 -49 124 -112 142 -235 7 -44 15 -95 18 -112 5 -31 3 -33 -23 -33 -79 0 -191 49 -259 112 -57 52 -85 110 -85 177 0 47 4 57 34 87 45 45 99 47 173 4z"/>
 </g>

</svg>