<!DOCTYPE svg PUBLIC "-//W3C//DTD SVG 20010904//EN" "http://www.w3.org/TR/2001/REC-SVG-20010904/DTD/svg10.dtd">
<svg version="1.0" xmlns="http://www.w3.org/2000/svg" width="160px" height="214px" viewBox="0 0 1600 2140" preserveAspectRatio="xMidYMid meet">
<g id="layer101" fill="#ffffff" stroke="none">
 <path d="M324 1946 c-44 -20 -102 -83 -115 -125 -7 -24 -9 -286 -7 -782 l3 -745 25 -37 c14 -21 43 -50 64 -65 l39 -27 457 0 457 0 39 27 c21 15 50 44 64 65 l25 37 0 766 0 767 -27 39 c-15 21 -44 50 -65 64 l-37 25 -445 2 c-358 2 -452 0 -477 -11z m505 -91 c46 -23 56 -84 22 -126 -27 -33 -95 -33 -122 0 -34 42 -22 103 26 129 27 15 41 15 74 -3z m385 -251 c14 -6 16 -69 16 -615 l0 -609 -440 0 -440 0 0 609 c0 478 3 610 13 614 18 8 832 8 851 1z m-331 -1323 c5 -5 7 -17 4 -25 -9 -24 -185 -23 -194 0 -4 10 0 22 9 28 18 14 166 12 181 -3z"/>
 <path d="M590 1429 c-60 -24 -90 -75 -96 -165 -3 -52 -1 -64 11 -64 9 0 15 9 15 22 0 33 47 106 80 123 16 8 40 15 54 15 27 0 44 -16 24 -23 -20 -7 -7 -14 39 -20 l41 -5 16 46 c16 50 14 61 -7 43 -11 -9 -24 -6 -58 14 -47 26 -78 30 -119 14z"/>
 <path d="M810 1195 c0 -142 1 -147 25 -170 23 -24 29 -25 164 -25 133 0 141 1 168 24 28 24 28 24 31 170 l3 146 -30 0 -31 0 0 -105 c0 -87 -3 -105 -15 -105 -12 0 -15 18 -15 105 l0 105 -111 0 -110 0 3 -105 c3 -95 1 -105 -14 -105 -16 0 -18 12 -18 105 l0 105 -25 0 -25 0 0 -145z"/>
 <path d="M380 1040 c0 -200 10 -210 204 -210 119 0 126 1 155 26 l31 26 0 144 0 144 -25 0 -25 0 0 -100 c0 -82 -3 -100 -15 -100 -12 0 -15 18 -15 100 l0 100 -110 0 -110 0 0 -100 c0 -82 -3 -100 -15 -100 -12 0 -15 18 -15 100 l0 100 -30 0 -30 0 0 -130z"/>
 <path d="M964 976 c-102 -45 -76 -196 33 -196 47 0 81 22 99 65 22 54 -2 105 -63 131 -38 16 -31 16 -69 0z"/>
 <path d="M524 801 c-45 -27 -61 -79 -39 -125 20 -42 73 -70 115 -61 66 15 103 111 62 161 -37 47 -88 56 -138 25z"/>
 <path d="M991 741 c-22 -50 -74 -93 -124 -98 -27 -3 -47 -1 -51 6 -4 6 -2 11 3 11 25 0 8 18 -28 28 -51 16 -48 17 -68 -25 -9 -21 -19 -42 -21 -47 -2 -4 5 -5 16 -2 15 5 34 -2 63 -24 102 -73 216 -8 236 135 7 52 -8 61 -26 16z"/>
 </g>

</svg>