<!DOCTYPE svg PUBLIC "-//W3C//DTD SVG 20010904//EN" "http://www.w3.org/TR/2001/REC-SVG-20010904/DTD/svg10.dtd">
<svg version="1.0" xmlns="http://www.w3.org/2000/svg" width="174px" height="144px" viewBox="0 0 1740 1440" preserveAspectRatio="xMidYMid meet">
<g id="layer101" fill="#ffffff" stroke="none">
 <path d="M635 1396 c-190 -62 -331 -184 -413 -357 -46 -97 -62 -170 -62 -287 0 -122 17 -196 67 -296 90 -179 253 -312 439 -360 80 -21 251 -21 329 -1 232 61 412 235 484 469 27 86 29 266 5 360 -57 221 -259 423 -480 480 -97 25 -281 21 -369 -8z m326 -71 c173 -37 346 -179 414 -341 65 -156 57 -357 -22 -507 -116 -219 -355 -342 -599 -308 -99 14 -162 37 -242 87 -78 50 -117 88 -168 165 -59 90 -82 154 -96 262 -22 183 36 351 167 483 144 145 340 202 546 159z"/>
 <path d="M610 1181 c-83 -18 -149 -69 -191 -151 -23 -43 -24 -53 -24 -275 0 -219 1 -232 23 -280 30 -66 66 -102 127 -131 48 -23 59 -24 286 -24 235 0 236 0 285 26 66 34 86 55 118 117 26 52 26 53 26 287 0 226 -1 237 -24 285 -29 61 -66 97 -131 127 -46 21 -65 23 -255 25 -113 1 -221 -2 -240 -6z m466 -100 c93 -42 106 -90 102 -355 -3 -228 -8 -246 -80 -294 -41 -27 -42 -27 -243 -30 -214 -4 -263 3 -310 40 -57 44 -65 82 -65 310 0 220 4 245 48 292 48 51 69 55 297 55 183 1 215 -2 251 -18z"/>
 <path d="M770 981 c-104 -32 -179 -129 -180 -231 0 -54 35 -134 76 -172 107 -100 284 -75 360 50 52 86 52 169 -1 251 -52 84 -166 129 -255 102z m141 -104 c47 -31 71 -81 66 -138 -4 -54 -28 -90 -78 -118 -112 -64 -248 38 -219 164 22 98 147 148 231 92z"/>
 <path d="M1032 548 c-28 -28 -1 -75 37 -63 11 3 23 15 26 26 12 38 -35 65 -63 37z"/>
 </g>

</svg>