<!DOCTYPE svg PUBLIC "-//W3C//DTD SVG 20010904//EN" "http://www.w3.org/TR/2001/REC-SVG-20010904/DTD/svg10.dtd">
<svg version="1.0" xmlns="http://www.w3.org/2000/svg" width="51px" height="116px" viewBox="0 0 510 1160" preserveAspectRatio="xMidYMid meet">
<g id="layer101" fill="#0b1112" stroke="none">
 <path d="M0 580 l0 -580 94 0 93 0 23 88 c12 48 43 159 67 247 25 88 64 230 88 315 24 85 64 228 89 317 25 89 46 169 46 177 0 14 -30 16 -250 16 l-250 0 0 -580z"/>
 </g>
<g id="layer102" fill="#f0a419" stroke="none">
 <path d="M390 1083 c-12 -43 -28 -103 -35 -133 -7 -30 -25 -95 -40 -145 -15 -49 -40 -139 -56 -200 -15 -60 -40 -146 -54 -189 -14 -43 -25 -85 -25 -92 0 -8 -12 -53 -26 -101 -49 -165 -64 -218 -64 -220 0 -2 22 -3 49 -3 l48 0 23 88 c12 48 43 159 67 247 25 88 64 230 88 315 24 85 64 228 89 317 25 89 46 169 46 177 0 12 -11 16 -43 16 l-44 0 -23 -77z"/>
 </g>

</svg>