<!DOCTYPE svg PUBLIC "-//W3C//DTD SVG 20010904//EN" "http://www.w3.org/TR/2001/REC-SVG-20010904/DTD/svg10.dtd">
<svg version="1.0" xmlns="http://www.w3.org/2000/svg" width="231px" height="300px" viewBox="0 0 2310 3000" preserveAspectRatio="xMidYMid meet">
<g id="layer101" fill="#4d4d4d" stroke="none">
 <path d="M430 2767 c-58 -17 -113 -60 -145 -111 l-30 -49 -3 -694 -3 -693 61 0 60 0 0 658 c0 624 1 659 19 699 14 30 31 48 60 62 38 20 57 21 395 21 l355 0 41 53 c22 30 40 57 40 60 0 12 -812 6 -850 -6z"/>
 <path d="M1830 2770 c0 -6 17 -32 38 -59 l37 -49 96 -3 c87 -4 99 -7 133 -32 20 -16 41 -40 47 -54 5 -14 9 -382 9 -909 l0 -884 -225 0 c-245 0 -275 -5 -322 -56 -49 -53 -53 -78 -53 -350 l0 -254 -562 0 c-542 0 -564 1 -595 20 -51 31 -63 73 -63 221 l0 129 -61 0 -61 0 4 -162 c3 -133 6 -169 21 -196 27 -49 57 -81 103 -108 l41 -24 635 0 635 0 92 99 c50 54 99 107 109 118 57 65 162 181 192 212 19 20 76 81 125 136 50 55 93 101 98 103 4 2 7 437 7 966 0 937 -1 963 -20 1003 -29 60 -98 117 -160 131 -64 15 -300 16 -300 2z m270 -2127 c0 -5 -31 -40 -68 -79 -37 -39 -103 -111 -147 -160 -44 -49 -101 -111 -127 -139 l-48 -50 0 193 c0 261 -17 241 213 242 97 0 177 -3 177 -7z"/>
 </g>
<g id="layer102" fill="#df3e1b" stroke="none">
 <path d="M1469 2923 c-33 -43 -68 -87 -77 -98 -10 -12 -53 -68 -96 -125 -44 -58 -83 -107 -86 -110 -3 -3 -23 -30 -45 -60 -22 -30 -42 -57 -45 -60 -22 -19 -60 -81 -60 -98 0 -31 16 -37 120 -42 l95 -5 3 -324 c2 -245 5 -327 15 -333 21 -13 511 -10 525 4 9 9 12 97 12 335 l0 323 94 0 c97 0 126 11 126 46 0 8 -106 152 -236 319 -194 252 -239 305 -259 305 -19 0 -40 -19 -86 -77z"/>
 <path d="M0 855 l0 -305 710 0 710 0 0 305 0 305 -710 0 -710 0 0 -305z m310 125 l0 -70 40 0 c87 0 150 -51 150 -122 0 -87 -56 -128 -174 -128 -103 0 -96 -15 -96 201 l0 189 40 0 40 0 0 -70z m487 42 c52 -27 81 -67 92 -129 18 -93 -13 -169 -83 -205 -43 -22 -172 -36 -220 -24 l-26 6 0 191 0 191 98 -4 c74 -3 107 -9 139 -26z m243 -52 l0 -80 70 0 70 0 0 -35 0 -35 -70 0 -70 0 0 -40 0 -39 73 -3 72 -3 0 -35 0 -35 -115 0 -115 0 -3 180 c-1 98 0 185 2 192 3 8 22 13 46 13 l40 0 0 -80z"/>
 <path d="M310 785 l0 -55 39 0 c44 0 64 17 64 57 0 33 -27 53 -70 53 l-33 0 0 -55z"/>
 <path d="M645 968 c-3 -8 -4 -63 -3 -124 l3 -109 34 -3 c81 -8 126 43 119 135 -6 70 -36 103 -102 110 -34 4 -47 2 -51 -9z"/>
 </g>
<g id="layer103" fill="#fdf4f2" stroke="none">
 <path d="M230 861 c0 -216 -7 -201 96 -201 118 0 174 41 174 128 0 71 -63 122 -150 122 l-40 0 0 70 0 70 -40 0 -40 0 0 -189z m164 -34 c21 -16 24 -60 6 -82 -7 -9 -29 -15 -51 -15 l-39 0 0 55 0 55 33 0 c18 0 41 -6 51 -13z"/>
 <path d="M560 861 l0 -191 26 -6 c48 -12 177 2 220 24 70 36 101 112 83 205 -20 107 -82 149 -231 155 l-98 4 0 -191z m208 86 c19 -19 26 -39 30 -80 7 -92 -38 -143 -119 -135 l-34 3 -3 109 c-1 61 0 116 3 124 9 24 92 10 123 -21z"/>
 <path d="M954 1037 c-2 -7 -3 -94 -2 -192 l3 -180 115 0 115 0 0 35 0 35 -72 3 -73 3 0 39 0 40 70 0 70 0 0 35 0 35 -70 0 -70 0 0 80 0 80 -40 0 c-24 0 -43 -5 -46 -13z"/>
 </g>

</svg>