<!DOCTYPE svg PUBLIC "-//W3C//DTD SVG 20010904//EN" "http://www.w3.org/TR/2001/REC-SVG-20010904/DTD/svg10.dtd">
<svg version="1.0" xmlns="http://www.w3.org/2000/svg" width="834px" height="648px" viewBox="0 0 8340 6480" preserveAspectRatio="xMidYMid meet">
<g id="layer101" fill="#585858" stroke="none">
 <path d="M1240 6075 c-227 -64 -415 -244 -496 -475 -35 -101 -44 -255 -20 -362 53 -238 227 -428 461 -505 68 -22 99 -26 205 -27 69 -1 137 2 153 7 20 6 27 4 27 -7 0 -27 155 -322 223 -423 37 -56 90 -126 117 -156 28 -30 50 -58 50 -61 0 -16 -92 -129 -175 -215 -330 -342 -761 -541 -1263 -583 -119 -10 -142 -15 -140 -28 3 -11 28 -18 113 -27 558 -60 1044 -274 1309 -576 57 -66 156 -204 156 -220 0 -5 -23 -34 -51 -65 -28 -32 -81 -102 -117 -157 -67 -99 -222 -394 -222 -421 0 -11 -7 -13 -27 -7 -16 5 -84 8 -153 7 -106 -1 -137 -5 -205 -27 -186 -61 -325 -183 -411 -361 -50 -103 -68 -197 -61 -325 8 -182 78 -334 217 -471 83 -82 154 -129 258 -168 60 -24 81 -26 207 -27 115 0 156 4 228 23 453 120 736 455 797 946 17 135 8 390 -19 526 -42 210 -129 423 -237 576 -14 21 -11 24 98 96 450 298 956 485 1559 577 367 56 309 54 2164 60 l1720 6 0 25 0 25 -510 6 c-280 3 -820 7 -1200 8 -965 3 -1696 17 -1884 36 -744 75 -1329 269 -1849 613 -109 72 -112 75 -98 96 34 48 106 174 126 221 89 209 130 391 137 621 9 271 -27 467 -121 659 -139 280 -366 463 -681 546 -107 28 -307 35 -385 14z m341 -39 c416 -89 719 -519 719 -1020 0 -210 -44 -398 -142 -606 -51 -109 -147 -270 -161 -270 -18 0 -142 137 -191 213 -75 114 -198 369 -185 381 2 2 24 14 49 26 71 35 165 106 199 149 58 73 85 147 85 236 1 93 -23 148 -77 180 -73 43 -190 9 -253 -73 -59 -77 -79 -163 -79 -334 l0 -146 -35 -6 c-58 -10 -216 -7 -272 5 -101 21 -196 75 -278 158 -120 121 -178 249 -187 416 -19 335 172 613 469 686 90 22 248 24 339 5z m270 -756 c36 -20 51 -67 47 -144 -5 -92 -27 -136 -107 -216 -63 -62 -174 -131 -188 -116 -4 4 -9 60 -11 125 -7 179 24 263 122 329 50 33 100 41 137 22z m331 -1394 c368 -238 825 -437 1257 -545 172 -43 438 -91 507 -91 71 0 51 -17 -28 -23 -180 -16 -465 -78 -703 -154 -325 -104 -699 -275 -979 -448 -101 -62 -142 -82 -147 -73 -129 208 -471 420 -909 563 -156 51 -400 115 -437 115 -13 0 -23 5 -23 10 0 6 9 10 20 10 42 0 281 64 450 120 271 90 448 173 624 293 94 64 230 192 262 245 10 18 19 32 21 32 1 0 40 -24 85 -54z m-125 -1628 c276 -439 319 -927 118 -1328 -128 -254 -346 -433 -594 -486 -88 -18 -235 -18 -324 2 -305 67 -503 349 -484 689 9 167 67 295 187 416 85 86 180 139 287 159 57 11 287 11 296 -1 2 -2 -1 -42 -6 -89 -22 -185 24 -341 125 -421 124 -98 246 -72 285 60 33 116 -6 231 -117 341 -54 54 -161 129 -204 143 -21 7 92 250 180 384 49 76 173 213 191 213 5 0 32 -37 60 -82z m-355 -624 c64 -39 146 -124 174 -181 25 -53 31 -170 10 -211 -32 -63 -97 -70 -172 -19 -89 59 -124 142 -124 291 0 50 3 108 6 129 8 45 17 44 106 -9z"/>
 </g>

</svg>