<!DOCTYPE svg PUBLIC "-//W3C//DTD SVG 20010904//EN" "http://www.w3.org/TR/2001/REC-SVG-20010904/DTD/svg10.dtd">
<svg version="1.0" xmlns="http://www.w3.org/2000/svg" width="1600px" height="257px" viewBox="0 0 16000 2570" preserveAspectRatio="xMidYMid meet">
<g id="layer101" fill="#585858" stroke="none">
 <path d="M7967 2122 c-9 -10 -23 -34 -31 -53 -8 -20 -47 -74 -87 -120 -110 -129 -240 -193 -444 -220 -105 -13 -203 -7 -263 16 -50 20 -92 82 -92 135 0 50 38 118 70 125 23 5 107 -7 114 -17 18 -23 34 -92 29 -128 -7 -47 10 -70 52 -70 40 0 55 30 55 112 0 67 -3 79 -29 115 -51 70 -114 103 -197 103 -119 0 -191 -84 -197 -230 -2 -41 -5 -49 -17 -43 -8 3 -64 8 -125 10 -100 3 -113 2 -150 -19 -58 -34 -98 -105 -103 -182 -5 -71 10 -96 57 -96 38 0 47 14 54 85 5 48 11 65 32 82 59 51 161 37 325 -44 111 -55 100 -53 258 -60 111 -5 121 -7 103 -19 -37 -27 -412 -150 -496 -164 -251 -42 -109 -40 -3249 -40 -2973 0 -2986 0 -3006 -20 -22 -22 -25 -42 -10 -71 11 -19 55 -19 3039 -19 3311 0 3065 4 3291 -56 124 -34 350 -109 409 -137 l46 -22 -125 -6 c-112 -5 -132 -9 -190 -36 -236 -111 -329 -127 -397 -69 -22 20 -26 31 -28 84 -1 33 -7 68 -15 76 -17 22 -63 20 -85 -4 -28 -31 -17 -135 20 -195 31 -50 34 -52 99 -80 31 -14 57 -16 125 -12 47 3 99 9 115 13 25 6 28 4 23 -10 -4 -10 -2 -49 4 -87 24 -145 141 -213 280 -164 52 19 106 67 125 112 21 49 19 166 -4 186 -21 19 -45 21 -73 7 -16 -9 -19 -20 -17 -69 4 -75 -13 -106 -68 -127 -54 -21 -86 -13 -115 27 -57 80 -27 180 64 219 120 52 383 25 534 -56 25 -13 51 -24 58 -24 7 0 36 -28 66 -62 29 -35 65 -75 80 -90 14 -14 38 -52 52 -82 l27 -56 48 0 49 0 38 61 c20 33 49 73 64 88 14 16 43 49 64 74 122 150 574 234 698 130 75 -63 78 -164 5 -225 -27 -22 -40 -22 -100 -1 -58 21 -70 45 -62 120 7 58 -8 83 -49 83 -38 0 -65 -44 -65 -104 1 -125 103 -226 229 -226 92 0 136 30 176 118 17 38 25 72 25 112 l0 58 47 -14 c74 -22 171 -18 236 10 72 32 95 69 103 168 8 88 -3 118 -44 118 -45 0 -54 -13 -57 -77 -4 -95 -43 -133 -134 -133 -39 0 -163 44 -251 89 -77 40 -149 53 -268 49 -56 -1 -102 -2 -102 -1 0 8 90 46 190 81 170 60 274 90 406 117 l119 25 3017 0 c2729 0 3018 1 3032 16 19 18 21 65 4 82 -9 9 -688 12 -2992 12 -1992 0 -3002 4 -3044 10 -35 6 -96 15 -135 20 -108 14 -540 149 -569 178 -5 5 48 11 124 15 130 5 136 6 200 41 79 44 229 96 275 96 46 0 99 -24 114 -51 6 -13 13 -47 14 -77 2 -58 12 -72 56 -72 43 0 53 21 46 106 -11 141 -74 194 -233 194 -49 0 -104 -4 -122 -9 l-32 -10 0 55 c0 92 -55 188 -123 213 -43 17 -127 13 -172 -8 -50 -22 -109 -86 -125 -136 -26 -79 4 -175 54 -175 42 0 51 15 48 80 -3 79 15 116 66 129 73 21 102 10 132 -49 23 -46 25 -78 6 -123 -40 -97 -167 -127 -381 -92 -158 25 -310 93 -363 162 -15 20 -48 60 -74 90 -26 31 -57 75 -68 98 -12 24 -28 46 -36 49 -29 11 -61 6 -77 -12z m87 -189 c41 -65 153 -184 206 -218 19 -12 58 -41 85 -64 55 -46 337 -193 407 -211 24 -7 81 -25 128 -40 47 -15 110 -33 140 -40 l55 -13 -85 -24 c-47 -13 -110 -30 -140 -38 -113 -29 -397 -163 -477 -226 -26 -21 -64 -47 -83 -58 -47 -26 -199 -184 -236 -243 -16 -27 -33 -48 -39 -48 -5 0 -30 30 -54 65 -85 125 -280 287 -441 365 -214 106 -254 121 -438 171 -94 25 -118 35 -100 40 304 88 340 101 503 184 214 108 378 242 488 398 23 31 42 57 43 57 1 0 19 -26 38 -57z"/>
 <path d="M7944 1667 c-61 -63 -90 -83 -200 -139 -71 -36 -151 -73 -179 -82 -89 -29 -348 -96 -372 -96 -12 0 -23 -6 -23 -13 0 -9 32 -19 98 -31 119 -22 293 -76 387 -121 39 -19 83 -39 99 -45 50 -19 176 -112 222 -164 49 -56 41 -57 87 4 17 23 146 123 182 142 150 79 374 157 528 185 105 18 126 36 52 46 -25 4 -101 22 -170 42 -69 19 -133 35 -143 35 -10 0 -22 4 -28 8 -5 5 -31 17 -59 27 -27 10 -84 37 -125 59 -41 23 -89 48 -105 56 -16 8 -63 48 -104 88 -41 39 -74 72 -75 72 -1 0 -33 -33 -72 -73z"/>
 </g>

</svg>