<!DOCTYPE svg PUBLIC "-//W3C//DTD SVG 20010904//EN" "http://www.w3.org/TR/2001/REC-SVG-20010904/DTD/svg10.dtd">
<svg version="1.0" xmlns="http://www.w3.org/2000/svg" width="208px" height="208px" viewBox="0 0 2080 2080" preserveAspectRatio="xMidYMid meet">
<g id="layer101" fill="#ffffff" stroke="none">
 <path d="M389 1847 c-18 -12 -44 -38 -56 -56 l-23 -34 0 -639 c0 -712 -3 -682 68 -736 34 -26 39 -27 195 -30 87 -2 157 0 155 5 -2 4 -25 52 -51 106 l-47 97 -90 0 -90 0 0 490 0 490 325 0 325 0 0 -100 c0 -55 2 -100 4 -100 11 0 104 -20 119 -25 16 -7 17 7 17 204 0 244 -7 274 -73 322 l-40 29 -352 0 c-350 0 -352 0 -386 -23z m452 -66 c16 -13 23 -29 23 -55 0 -75 -83 -108 -131 -52 -30 35 -29 71 2 101 29 30 73 33 106 6z"/>
 <path d="M820 1272 c0 -10 29 -46 65 -81 36 -34 75 -81 87 -104 19 -39 20 -42 3 -52 -10 -5 -40 -27 -66 -48 -304 -235 -184 -645 219 -748 155 -39 350 -18 485 53 82 44 176 138 213 213 26 54 29 70 29 160 0 88 -3 107 -27 158 -42 89 -137 179 -240 226 -87 40 -157 61 -206 61 -16 0 -78 23 -137 50 -135 64 -332 130 -385 130 -32 0 -40 -4 -40 -18z m240 -457 c35 -18 50 -43 50 -83 0 -37 -24 -58 -113 -102 -59 -29 -72 -39 -72 -59 0 -36 47 -68 82 -55 16 5 32 19 38 32 11 24 55 31 55 9 0 -50 -79 -86 -148 -68 -105 29 -94 136 17 170 48 14 101 56 101 80 0 31 -38 61 -76 61 -34 0 -84 -35 -84 -60 0 -5 -9 -10 -20 -10 -38 0 -19 59 28 84 35 20 105 20 142 1z m150 -110 c0 -69 3 -125 8 -125 4 0 18 51 31 113 29 134 30 137 46 137 12 0 65 -192 65 -234 0 -9 5 -16 10 -16 6 0 10 48 10 125 0 118 1 125 20 125 19 0 20 -7 20 -170 l0 -170 -34 0 -34 0 -16 73 c-9 39 -19 89 -23 110 -5 21 -13 38 -18 38 -5 0 -13 -17 -18 -38 -4 -21 -14 -71 -23 -110 l-16 -73 -34 0 -34 0 0 170 c0 163 1 170 20 170 19 0 20 -7 20 -125z m467 105 c40 -24 54 -77 29 -114 -13 -21 -110 -76 -134 -76 -5 0 -17 -9 -26 -19 -41 -46 14 -106 74 -81 16 7 32 21 35 31 9 27 55 27 48 0 -8 -32 -46 -60 -88 -66 -51 -8 -104 18 -124 59 -22 46 0 74 94 121 72 36 80 43 83 72 4 38 -26 63 -75 63 -35 0 -73 -29 -73 -55 0 -9 -9 -15 -24 -15 -20 0 -23 4 -19 23 7 28 32 57 58 68 37 15 109 10 142 -11z"/>
 </g>

</svg>