<!DOCTYPE svg PUBLIC "-//W3C//DTD SVG 20010904//EN" "http://www.w3.org/TR/2001/REC-SVG-20010904/DTD/svg10.dtd">
<svg version="1.0" xmlns="http://www.w3.org/2000/svg" width="146px" height="142px" viewBox="0 0 1460 1420" preserveAspectRatio="xMidYMid meet">
<g id="layer101" fill="#ffffff" stroke="none">
 <path d="M581 1315 c-162 -45 -317 -175 -389 -325 -48 -102 -62 -163 -62 -278 0 -143 40 -261 125 -372 120 -156 291 -240 487 -240 115 0 176 14 278 62 155 74 280 227 325 398 21 80 19 250 -3 325 -30 97 -72 172 -135 241 -71 78 -147 131 -242 170 -63 25 -83 28 -200 31 -92 2 -146 -2 -184 -12z m274 -70 c108 -23 189 -68 272 -151 82 -81 124 -158 148 -270 19 -88 19 -125 0 -216 -87 -420 -607 -576 -910 -273 -105 105 -156 230 -156 386 -1 252 180 475 426 523 92 19 136 19 220 1z"/>
 <path d="M494 1046 c-61 -14 -163 -56 -164 -67 0 -4 30 -9 68 -11 38 -3 89 -15 118 -29 l50 -23 -50 -25 c-45 -23 -96 -78 -96 -103 0 -5 15 -7 33 -3 28 5 29 4 12 -6 -38 -22 -77 -64 -91 -98 -18 -42 -18 -75 -1 -68 50 20 49 21 23 -17 -13 -20 -28 -50 -31 -67 -7 -31 11 -119 24 -119 4 0 20 14 37 31 61 66 208 139 279 139 21 0 25 -4 25 -32 0 -42 35 -113 68 -137 64 -45 162 -45 211 0 20 19 21 19 73 -1 28 -11 54 -18 56 -15 7 7 -39 75 -50 75 -6 0 -9 3 -6 6 3 3 22 -1 41 -10 19 -8 38 -12 41 -8 4 3 -13 26 -38 51 -39 42 -44 52 -50 107 -17 185 -156 362 -324 414 -87 27 -182 33 -258 16z"/>
 </g>

</svg>